<?xml version="1.0" encoding="UTF-8" standalone="no"?>
<!-- Generator: Adobe Illustrator 27.3.1, SVG Export Plug-In . SVG Version: 6.00 Build 0)  -->

<svg
   version="1.1"
   id="Ebene_1"
   x="0px"
   y="0px"
   viewBox="0 0 283.46 283.46"
   style="enable-background:new 0 0 283.46 283.46;"
   xml:space="preserve"
   sodipodi:docname="logo.svg"
   inkscape:version="1.2.1 (9c6d41e410, 2022-07-14)"
   xmlns:inkscape="http://www.inkscape.org/namespaces/inkscape"
   xmlns:sodipodi="http://sodipodi.sourceforge.net/DTD/sodipodi-0.dtd"
   xmlns="http://www.w3.org/2000/svg"
   xmlns:svg="http://www.w3.org/2000/svg"><defs
   id="defs11" /><sodipodi:namedview
   id="namedview9"
   pagecolor="#ffffff"
   bordercolor="#666666"
   borderopacity="1.0"
   inkscape:showpageshadow="2"
   inkscape:pageopacity="0.0"
   inkscape:pagecheckerboard="0"
   inkscape:deskcolor="#d1d1d1"
   showgrid="false"
   inkscape:zoom="3.0939111"
   inkscape:cx="142.21482"
   inkscape:cy="155.78987"
   inkscape:window-width="1898"
   inkscape:window-height="1041"
   inkscape:window-x="10"
   inkscape:window-y="27"
   inkscape:window-maximized="1"
   inkscape:current-layer="Ebene_1" />
<style
   type="text/css"
   id="style2">
	.st0{fill:#F3952E;}
	.st1{fill:#222323;}
</style>

<path
   class="st1"
   d="M170.08,95.14c0,5.31,0,12.91,0,20.46c0,1.52,0,3.09,0,4.69v36.07c0,0.13,0,0.24,0,0.34c0,0.46,0,0.6,0,0.58  c0,0.29,0,0.71,0,1.3c0,2.74-1.58,5.23-4.06,6.39l-10.11,4.73c0-13.82,0-27.98,0-27.98s0-64.61,0-70.87  c0,7.39-28.35,9.35-28.35,24.01c0,14.66,0,46.86,0,46.86s0,21.76,0,41.24l-14.24,6.66c0.03-0.34,0.06-0.69,0.06-1.05  c0-14.66,0-46.86,0-46.86s0-64.61,0-70.87c0,7.39-28.35,9.35-28.35,24.01c0,14.66,0,46.86,0,46.86s0,64.61,0,70.87  c0-3.52,6.42-5.8,13.15-8.81l0,0l0.07-0.03c1.05-0.47,2.1-0.96,3.13-1.47l26.17-12.25v22.57c0-7.39,28.35-9.35,28.35-24.01  c0-3.26,0-7.39,0-11.84l14.17-6.64c0,5.57,0,14.52,0,15.3c0,0.2,0,0.39,0,0.54c0,0.64,0,0.82,0,0.79c0,0.41,0,1,0,1.85  c0,14.66,28.35,16.62,28.35,24.01c0-3.82,0-12.46,0-30.31c0,0.04,0-0.26,0-0.72c0-0.19,0-0.35,0-0.51c0-0.25,0-0.47,0-0.68  c0-8.15-8.76-12.37-16.54-15.79c0.02-0.01,0.04-0.02,0.06-0.03l5.38-2.52c0.03-0.01,0.05-0.03,0.07-0.04l0.18-0.09v-0.01  c5.82-3.02,10.84-6.94,10.84-13.11c0-6.18,0-22.66,0-31.35c0-1.3,0-2.58,0-3.84c0-18.21,0-39.06,0-42.48  C198.43,78.52,170.08,80.48,170.08,95.14z"
   id="path6" />
</svg>
